<svg version="1" xmlns="http://www.w3.org/2000/svg" width="682.667" height="682.667" viewBox="0 0 512.000000 512.000000"><path d="M0 256v256h512V0H0v256zM277 44c27.4 2.9 52.6 11.7 65.2 23 17.8 15.8 16.5 42.9-2.4 51-4.1 1.7-6.4 2.1-10.5 1.7-9.1-.9-14.3-4.7-33.6-23.9-9.8-9.8-20.6-19.8-24.1-22.3-12.8-9.1-24-12.2-40.1-11.2-42 2.8-58.2 36.1-30.8 63.2 8.4 8.3 23.1 19.5 57 43.3 54.3 38 72.7 53 86.5 70.1 16 19.9 26.8 42.3 32 66.4 2.9 13.6 3.2 41.7.5 55-3.9 19.2-11.5 37.1-23 54.2-7.8 11.4-28.6 32.5-39 39.4-42.6 28.5-96 28.1-134.4-.8-32.4-24.4-48.8-62.5-46.9-109.1.8-22 4.9-38.7 13.6-56 18-35.6 57.7-64.8 100-73.5 4.1-.8 8.6-1.7 9.9-2.1 2.3-.5 1.7-1.3-8-11.1-5.7-5.8-19.9-19.2-31.6-29.9-37.7-34.5-46.4-46.9-48-67.9-1.1-15.6 3.4-27.2 14.7-37.9C202.5 48.2 237.9 40 277 44z"/><path d="M262.5 228c-35.6 9.3-57.9 30.8-68 65.6-4.9 16.8-5.9 26-5.9 50.9.1 25.3 1.7 38.2 7 53.9 11.4 34.7 36.5 57.6 62.9 57.6 30.7-.1 55.6-26.4 63.9-67.5 9.5-47 .5-94-25.2-132.5-8.5-12.7-23-29.4-25.7-29.7-1.1-.1-5.2.7-9 1.7z"/></svg>